<?xml version="1.0" standalone="no"?>
<!DOCTYPE svg PUBLIC "-//W3C//DTD SVG 20010904//EN"
 "http://www.w3.org/TR/2001/REC-SVG-20010904/DTD/svg10.dtd">
<svg version="1.0" xmlns="http://www.w3.org/2000/svg"
 width="150.000000pt" height="150.000000pt" viewBox="0 0 150.000000 150.000000"
 preserveAspectRatio="xMidYMid meet">
<metadata>
Created by potrace 1.11, written by Peter Selinger 2001-2013
</metadata>
<g transform="translate(0.000000,150.000000) scale(0.100000,-0.100000)"
fill="#000000" stroke="none">
<path d="M720 1480 c0 -9 -3 -11 -8 -5 -9 12 -52 13 -71 1 -11 -7 -12 -6 -6 5
8 12 6 12 -8 1 -9 -8 -22 -10 -28 -6 -8 5 -9 3 -4 -6 6 -10 4 -12 -8 -7 -10 3
-17 2 -17 -2 0 -5 -12 -8 -26 -6 -20 2 -24 -1 -19 -14 5 -12 3 -13 -6 -4 -12
12 -45 1 -60 -20 -3 -5 -9 -8 -13 -8 -22 3 -27 -1 -22 -15 5 -14 4 -15 -8 -5
-11 9 -17 8 -30 -5 -9 -9 -24 -17 -34 -19 -9 -1 -16 -8 -15 -13 2 -6 -4 -9
-12 -6 -8 4 -15 1 -15 -6 0 -6 -5 -8 -10 -5 -6 3 -13 -1 -16 -9 -3 -9 -10 -14
-14 -11 -5 3 -15 -4 -23 -15 -7 -11 -16 -18 -18 -16 -2 2 -23 -16 -46 -40 -24
-24 -40 -44 -36 -44 4 0 -2 -6 -13 -14 -10 -8 -16 -18 -12 -21 4 -4 -3 -16
-15 -26 -20 -18 -20 -19 -2 -13 17 6 17 4 -3 -11 -19 -14 -21 -20 -11 -31 10
-12 10 -15 -2 -12 -8 2 -13 -3 -11 -9 1 -7 -2 -13 -8 -13 -5 0 -10 -5 -10 -11
0 -5 6 -7 13 -4 6 4 3 -1 -7 -9 -15 -12 -16 -16 -5 -16 12 0 12 -2 -1 -10 -8
-5 -11 -10 -6 -10 5 0 4 -6 -1 -12 -6 -7 -9 -21 -8 -30 2 -10 -1 -18 -7 -18
-7 0 -6 -5 1 -14 8 -10 9 -16 1 -21 -6 -3 -8 -11 -5 -16 4 -5 1 -9 -4 -9 -6 0
-11 -5 -11 -11 0 -5 6 -7 12 -3 9 5 9 2 -1 -9 -10 -13 -10 -17 -1 -17 9 0 9
-4 3 -12 -6 -7 -9 -23 -8 -36 1 -13 -3 -26 -8 -29 -6 -4 -7 -1 -2 8 5 8 4 10
0 6 -11 -10 -16 -39 -5 -32 14 9 19 -22 6 -41 -14 -21 -17 -56 -4 -48 8 5 10
-4 10 -63 0 -18 4 -33 9 -33 5 0 5 -7 2 -17 -4 -10 -2 -14 4 -10 6 4 11 -4 11
-19 0 -14 8 -32 18 -40 11 -9 13 -13 7 -9 -9 4 -11 1 -7 -9 3 -9 10 -16 16
-16 5 0 7 -4 3 -9 -5 -9 13 -39 63 -111 27 -39 68 -80 80 -80 6 0 14 -5 18
-12 5 -7 3 -8 -7 -3 -12 7 -12 6 0 -9 8 -9 22 -15 32 -13 11 3 16 0 13 -8 -3
-7 0 -16 7 -21 8 -5 10 -3 5 7 -4 8 -1 6 7 -3 8 -10 17 -18 21 -18 4 0 14 -7
23 -16 9 -8 22 -13 30 -10 8 3 11 1 8 -4 -3 -6 3 -10 15 -10 12 0 18 -4 15
-10 -3 -5 1 -11 9 -11 31 -3 68 -19 78 -33 5 -7 8 -6 8 4 1 12 2 12 10 -2 6
-10 20 -15 35 -14 13 2 22 -1 19 -5 -3 -5 6 -10 20 -10 34 -2 39 -3 54 -12 7
-5 12 -3 12 5 0 9 3 9 8 2 4 -6 14 -11 22 -12 82 -6 110 -6 110 3 0 6 4 4 9
-3 6 -11 10 -10 15 3 5 14 9 15 21 5 12 -10 15 -10 15 1 0 9 3 10 8 4 8 -12
32 -13 50 -2 6 5 16 6 21 2 5 -3 12 -1 16 4 3 6 12 8 19 5 8 -3 17 -1 20 5 4
6 13 8 21 4 8 -3 15 0 15 7 0 6 5 8 10 5 6 -3 10 -1 10 6 0 7 3 10 6 6 10 -9
64 14 57 26 -4 6 -1 7 6 2 7 -4 22 2 37 16 13 12 24 19 24 15 0 -4 6 -1 14 6
8 7 11 17 8 22 -3 5 0 6 6 2 6 -4 19 2 29 13 9 11 20 18 25 15 4 -3 8 2 8 10
0 9 4 16 10 16 13 0 50 32 50 43 0 5 6 15 13 22 30 35 37 45 30 45 -4 0 -3 4
2 8 6 4 17 16 25 26 13 18 13 19 0 12 -9 -4 -8 -2 2 7 10 8 15 17 11 20 -3 4
0 7 7 7 7 0 10 3 7 7 -4 3 0 15 10 25 13 14 13 18 2 18 -11 0 -11 2 1 10 8 5
11 10 6 10 -5 0 -4 6 2 12 6 7 13 33 17 58 3 25 9 53 12 64 3 10 1 16 -4 13
-5 -4 -10 0 -10 8 0 8 4 12 8 9 5 -2 8 6 7 18 -1 37 1 50 10 44 4 -2 8 5 9 17
0 12 -1 16 -4 10 -3 -7 -8 -13 -13 -13 -11 0 -7 33 5 42 15 11 13 31 -5 46
-13 12 -12 13 5 8 17 -5 18 -4 4 6 -10 9 -16 32 -17 68 -3 79 -7 114 -16 128
-4 7 -4 17 -1 22 3 6 1 10 -5 10 -6 0 -9 4 -6 9 3 5 -4 20 -15 35 -11 14 -18
26 -14 26 12 0 -25 45 -38 45 -6 0 -11 8 -9 17 1 10 -6 23 -18 30 -11 7 -20
17 -20 21 0 17 -101 108 -112 101 -6 -4 -8 -3 -5 3 4 6 -3 19 -15 29 -12 11
-18 13 -13 5 8 -15 -45 17 -57 34 -5 6 -8 6 -8 0 0 -5 -4 -5 -8 2 -4 6 -16 13
-27 15 -11 1 -22 5 -25 8 -13 13 -77 37 -93 34 -9 -1 -15 2 -11 7 5 9 -9 13
-33 10 -6 -1 -14 3 -18 9 -4 7 -13 7 -27 -1 -12 -6 -18 -7 -14 -1 8 13 -17 22
-35 12 -8 -5 -19 -4 -26 2 -9 7 -13 7 -13 -1 0 -7 -5 -9 -12 -5 -22 14 -58 10
-58 -6z m320 -1074 c0 -3 -4 -8 -10 -11 -5 -3 -10 -1 -10 4 0 6 5 11 10 11 6
0 10 -2 10 -4z"/>
</g>
</svg>
